<?xml version="1.0" encoding="utf-8"?>
<!-- Generator: Adobe Illustrator 23.0.1, SVG Export Plug-In . SVG Version: 6.00 Build 0)  -->
<svg version="1.1" id="Layer_1" xmlns="http://www.w3.org/2000/svg" xmlns:xlink="http://www.w3.org/1999/xlink" x="0px" y="0px"
	 viewBox="0 0 151 43.1" style="enable-background:new 0 0 151 43.1;" xml:space="preserve">
<title>simplifeye-dark</title>
<desc>Created with Sketch.</desc>
<path d="M16.9,18.4c-0.9,0-1.6-0.7-1.6-1.6c0-0.9,0.7-1.6,1.6-1.6c0.9,0,1.7,0.7,1.7,1.6C18.6,17.7,17.9,18.4,16.9,18.4 M18,13.9
	c-2.3,0-4.2,1.9-4.2,4.1s1.9,4.1,4.2,4.1c2.3,0,4.2-1.9,4.2-4.1S20.3,13.9,18,13.9"/>
<path d="M8.9,17.8c0,5,4.1,9.2,9.2,9.2c5.1,0,9.2-4.1,9.2-9.2c0-4.2-2.9-7.8-6.9-8.8v2c2.9,1,4.9,3.6,4.9,6.8c0,4-3.2,7.2-7.2,7.2
	c-4,0-7.2-3.2-7.2-7.2c0-3.2,2.1-5.8,4.9-6.8V9C11.8,10,8.9,13.6,8.9,17.8"/>
<path d="M17.9,30.9c7.2,0,13-5.8,13-12.9S25.1,5,17.9,5C11.6,5,6.3,9.6,5.2,15.6h2.1c1.1-4.9,5.5-8.5,10.7-8.5
	c6,0,10.9,4.9,10.9,10.9c0,6-4.9,10.9-10.9,10.9c-5.2,0-9.5-3.6-10.7-8.5H5.2C6.3,26.4,11.6,30.9,17.9,30.9"/>
<path d="M15.6,34.5v-2.1C8.8,31.2,3.5,25.2,3.5,18.1c0-8,6.5-14.5,14.5-14.5c8,0,14.5,6.5,14.5,14.5c0,7.2-5.2,13.1-12.1,14.3v2.1
	c8-1.2,14.2-8.1,14.2-16.4c0-9.1-7.5-16.6-16.6-16.6S1.5,9,1.5,18.1C1.4,26.4,7.6,33.3,15.6,34.5"/>
<path d="M44.2,20.7c0.6,0,1-0.1,1.3-0.2c0.2-0.1,0.4-0.3,0.4-0.7c0-0.3-0.2-0.5-0.5-0.7c-0.3-0.2-0.8-0.4-1.5-0.7
	c-0.5-0.2-1-0.4-1.4-0.6c-0.4-0.2-0.8-0.4-1.1-0.7c-0.3-0.3-0.5-0.6-0.7-1c-0.2-0.4-0.2-0.9-0.2-1.4c0-1.1,0.4-1.9,1.2-2.5
	c0.8-0.6,1.9-0.9,3.3-0.9c0.7,0,1.4,0.1,2,0.2s1.2,0.3,1.5,0.4L48,14.4c-0.4-0.1-0.8-0.2-1.2-0.3c-0.4-0.1-0.9-0.2-1.5-0.2
	c-1,0-1.5,0.3-1.5,0.8c0,0.1,0,0.2,0.1,0.3c0.1,0.1,0.1,0.2,0.3,0.3c0.1,0.1,0.3,0.2,0.5,0.3c0.2,0.1,0.5,0.2,0.9,0.4
	c0.7,0.3,1.3,0.5,1.8,0.8s0.8,0.5,1.1,0.8c0.3,0.3,0.5,0.6,0.6,1C49,19,49,19.5,49,19.9c0,1.1-0.4,2-1.3,2.6
	c-0.9,0.6-2.1,0.9-3.6,0.9c-1,0-1.9-0.1-2.5-0.3c-0.7-0.2-1.2-0.3-1.4-0.4l0.5-2.6c0.5,0.2,1.1,0.4,1.7,0.5
	C43.1,20.7,43.6,20.7,44.2,20.7"/>
<path d="M54.8,23h-3.3V11.6h3.3V23z M55.1,8.3c0,0.6-0.2,1.1-0.6,1.4c-0.4,0.3-0.8,0.5-1.4,0.5s-1-0.2-1.4-0.5
	c-0.4-0.3-0.6-0.8-0.6-1.4c0-0.6,0.2-1.1,0.6-1.4c0.4-0.3,0.8-0.5,1.4-0.5s1,0.2,1.4,0.5C54.9,7.2,55.1,7.7,55.1,8.3"/>
<path d="M64.1,17c0-1-0.1-1.8-0.4-2.2c-0.3-0.4-0.7-0.7-1.4-0.7c-0.2,0-0.4,0-0.6,0c-0.2,0-0.4,0.1-0.6,0.1V23h-3.2V12
	c0.3-0.1,0.6-0.2,1-0.2c0.4-0.1,0.8-0.2,1.2-0.2c0.4-0.1,0.8-0.1,1.3-0.2c0.4,0,0.9-0.1,1.3-0.1c0.8,0,1.5,0.1,2,0.3
	c0.5,0.2,0.9,0.5,1.3,0.8c0.5-0.3,1-0.6,1.6-0.8c0.6-0.2,1.2-0.3,1.7-0.3c0.9,0,1.7,0.1,2.2,0.4c0.6,0.3,1.1,0.6,1.4,1.1
	c0.3,0.5,0.6,1,0.7,1.6c0.1,0.6,0.2,1.4,0.2,2.1V23h-3.2V17c0-1-0.1-1.8-0.4-2.2c-0.3-0.4-0.7-0.7-1.4-0.7c-0.2,0-0.4,0.1-0.7,0.1
	c-0.3,0.1-0.6,0.2-0.8,0.3c0.1,0.3,0.2,0.7,0.2,1c0,0.4,0.1,0.8,0.1,1.2V23h-3.3V17z"/>
<path d="M84,17.4c0-1-0.2-1.8-0.7-2.4c-0.4-0.6-1.1-0.9-2-0.9c-0.3,0-0.5,0-0.8,0c-0.2,0-0.4,0.1-0.6,0.1v5.9
	c0.2,0.1,0.5,0.2,0.8,0.3c0.3,0.1,0.7,0.1,1,0.1C83.2,20.5,84,19.5,84,17.4 M87.3,17.3c0,0.9-0.1,1.7-0.3,2.4
	c-0.2,0.7-0.5,1.4-1,1.9c-0.4,0.5-0.9,0.9-1.6,1.2c-0.6,0.3-1.4,0.4-2.2,0.4c-0.4,0-0.9-0.1-1.3-0.1c-0.4-0.1-0.8-0.2-1.1-0.4v4.3
	h-3.3V12c0.3-0.1,0.6-0.2,1-0.3c0.4-0.1,0.8-0.2,1.2-0.2s0.8-0.1,1.3-0.1c0.4,0,0.8-0.1,1.2-0.1c0.9,0,1.8,0.1,2.5,0.4
	c0.7,0.3,1.4,0.7,1.9,1.2c0.5,0.5,0.9,1.2,1.2,1.9C87.2,15.6,87.3,16.4,87.3,17.3"/>
<path d="M94.4,23.3c-0.9,0-1.7-0.1-2.3-0.3c-0.6-0.2-1-0.4-1.4-0.8c-0.3-0.3-0.6-0.8-0.7-1.2c-0.1-0.5-0.2-1-0.2-1.6V6.7l3.3-0.5
	v12.5c0,0.3,0,0.5,0.1,0.8c0.1,0.2,0.1,0.4,0.3,0.6c0.1,0.2,0.3,0.3,0.5,0.4c0.2,0.1,0.5,0.2,0.9,0.2L94.4,23.3z"/>
<path d="M100,23h-3.2V11.6h3.2V23z M100.3,8.3c0,0.6-0.2,1.1-0.6,1.4c-0.4,0.3-0.8,0.5-1.4,0.5c-0.5,0-1-0.2-1.4-0.5
	c-0.4-0.3-0.6-0.8-0.6-1.4c0-0.6,0.2-1.1,0.6-1.4c0.4-0.3,0.8-0.5,1.4-0.5c0.5,0,1,0.2,1.4,0.5C100.1,7.2,100.3,7.7,100.3,8.3"/>
<path d="M108,6.1c0.6,0,1.2,0.1,1.7,0.2c0.5,0.1,0.9,0.2,1.2,0.4l-0.6,2.6C110,9.1,109.7,9,109.3,9c-0.3-0.1-0.7-0.1-0.9-0.1
	c-0.4,0-0.7,0.1-1,0.2c-0.3,0.1-0.5,0.3-0.6,0.4c-0.2,0.2-0.3,0.4-0.3,0.7s-0.1,0.5-0.1,0.8v0.6h4v2.7h-4V23h-3.3V11
	c0-1.5,0.4-2.7,1.3-3.5C105.1,6.6,106.4,6.1,108,6.1"/>
<path d="M119.2,16.2c0-0.3-0.1-0.5-0.1-0.8c-0.1-0.3-0.2-0.5-0.4-0.7c-0.2-0.2-0.4-0.4-0.6-0.5s-0.6-0.2-0.9-0.2s-0.7,0.1-0.9,0.2
	s-0.5,0.3-0.7,0.5c-0.2,0.2-0.3,0.4-0.4,0.7c-0.1,0.3-0.2,0.5-0.2,0.8H119.2z M111.6,17.4c0-1,0.2-1.9,0.5-2.7
	c0.3-0.8,0.7-1.4,1.2-1.9c0.5-0.5,1.1-0.9,1.8-1.2c0.7-0.3,1.3-0.4,2-0.4c1.6,0,2.9,0.5,3.9,1.5c0.9,1,1.4,2.5,1.4,4.4
	c0,0.2,0,0.4,0,0.6c0,0.2,0,0.4-0.1,0.6h-7.4c0.1,0.7,0.4,1.2,0.9,1.6c0.5,0.4,1.3,0.6,2.2,0.6c0.6,0,1.2-0.1,1.8-0.2
	c0.6-0.1,1-0.2,1.4-0.4l0.4,2.6c-0.2,0.1-0.4,0.2-0.7,0.3s-0.6,0.2-1,0.2c-0.4,0.1-0.7,0.1-1.2,0.2c-0.4,0.1-0.8,0.1-1.2,0.1
	c-1,0-1.9-0.2-2.7-0.4c-0.8-0.3-1.4-0.7-1.9-1.3c-0.5-0.5-0.9-1.2-1.1-1.9C111.7,19,111.6,18.3,111.6,17.4"/>
<path d="M135.1,11.6c-0.7,2.2-1.3,4.3-2.1,6.2c-0.7,1.9-1.5,3.8-2.4,5.6c-0.3,0.7-0.6,1.2-0.9,1.7c-0.3,0.4-0.7,0.8-1,1.1
	c-0.4,0.3-0.8,0.5-1.2,0.7c-0.5,0.1-1,0.2-1.6,0.2c-0.5,0-1-0.1-1.4-0.1c-0.4-0.1-0.8-0.2-1.1-0.3L124,24c0.3,0.1,0.6,0.2,0.9,0.2
	s0.5,0.1,0.8,0.1c0.6,0,1-0.2,1.3-0.5c0.3-0.3,0.6-0.7,0.8-1.3c-0.7-1.4-1.5-3.1-2.2-4.9s-1.4-3.8-2.1-6.1h3.5
	c0.2,0.6,0.3,1.2,0.5,1.8s0.4,1.3,0.6,2c0.2,0.7,0.4,1.3,0.7,2c0.2,0.6,0.4,1.2,0.7,1.8c0.2-0.5,0.4-1.1,0.6-1.8
	c0.2-0.6,0.4-1.3,0.6-2c0.2-0.7,0.4-1.3,0.6-2c0.2-0.7,0.3-1.3,0.5-1.8L135.1,11.6L135.1,11.6z"/>
<path d="M143.6,16.2c0-0.3-0.1-0.5-0.1-0.8s-0.2-0.5-0.4-0.7s-0.4-0.4-0.6-0.5c-0.3-0.1-0.6-0.2-0.9-0.2c-0.4,0-0.7,0.1-0.9,0.2
	c-0.3,0.1-0.5,0.3-0.7,0.5c-0.2,0.2-0.3,0.4-0.4,0.7c-0.1,0.3-0.2,0.5-0.2,0.8H143.6z M136,17.4c0-1,0.2-1.9,0.5-2.7
	c0.3-0.8,0.7-1.4,1.2-1.9c0.5-0.5,1.1-0.9,1.8-1.2c0.7-0.3,1.3-0.4,2-0.4c1.6,0,2.9,0.5,3.9,1.5c0.9,1,1.4,2.5,1.4,4.4
	c0,0.2,0,0.4,0,0.6c0,0.2,0,0.4-0.1,0.6h-7.4c0.1,0.7,0.4,1.2,0.9,1.6c0.5,0.4,1.3,0.6,2.2,0.6c0.6,0,1.2-0.1,1.8-0.2
	c0.6-0.1,1-0.2,1.4-0.4l0.4,2.6c-0.2,0.1-0.4,0.2-0.7,0.3s-0.6,0.2-1,0.2c-0.4,0.1-0.7,0.1-1.2,0.2c-0.4,0.1-0.8,0.1-1.2,0.1
	c-1,0-1.9-0.2-2.7-0.4c-0.8-0.3-1.4-0.7-1.9-1.3c-0.5-0.5-0.9-1.2-1.1-1.9C136.1,19,136,18.3,136,17.4"/>
</svg>
